<?xml version="1.0" encoding="UTF-8"?>
<svg width="192px" height="36px" viewBox="0 0 192 36" version="1.1" xmlns="http://www.w3.org/2000/svg" xmlns:xlink="http://www.w3.org/1999/xlink">
    <!-- Generator: Sketch 53.2 (72643) - https://sketchapp.com -->
    <title>wifi-caphe</title>
    <desc>Created with Sketch.</desc>
    <defs>
        <polygon id="path-1" points="0 0.425622857 32.0180914 0.425622857 32.0180914 18.0985371 0 18.0985371"></polygon>
        <polygon id="path-3" points="0 35.7602914 191.693314 35.7602914 191.693314 -5.14285714e-05 0 -5.14285714e-05"></polygon>
    </defs>
    <g id="Page-1" stroke="none" stroke-width="1" fill="none" fill-rule="evenodd">
        <g id="Desktop-HD-Copy" transform="translate(-140.000000, -84.000000)">
            <g id="Group-7">
                <g id="Group-21" transform="translate(140.000000, 84.000000)">
                    <path d="M12.3019714,16.0104857 C12.3019714,18.0573429 13.9620857,19.7174571 16.0089429,19.7174571 C18.0558,19.7174571 19.7159143,18.0573429 19.7159143,16.0104857 C19.7159143,13.9631143 18.0558,12.3035143 16.0089429,12.3035143 C13.9620857,12.3035143 12.3019714,13.9631143 12.3019714,16.0104857" id="Fill-1" fill="#0FA44A"></path>
                    <g id="Group-5" transform="translate(0.000000, 15.703149)">
                        <mask id="mask-2" fill="white">
                            <use xlink:href="#path-1"></use>
                        </mask>
                        <g id="Clip-4"></g>
                        <path d="M32.0180914,0.425622857 L29.3319771,0.425622857 L26.4380914,0.425622857 L23.7540343,0.425622857 C23.6902629,4.64328 20.2419771,8.05505143 16.0088914,8.05505143 C11.77632,8.05505143 8.32803429,4.64328 8.26426286,0.425622857 L5.57969143,0.425622857 L2.68580571,0.425622857 L-0.000308571429,0.425622857 C0.0572914286,8.21962286 5.71237714,14.7027086 13.1350629,16.0542514 C12.7236343,16.63128 12.4793486,17.3358514 12.4793486,18.0985371 L19.5384343,18.0985371 C19.5384343,17.3358514 19.2941486,16.63128 18.88272,16.0542514 C26.30592,14.7027086 31.9610057,8.21962286 32.0180914,0.425622857" id="Fill-3" fill="#0FA44A" mask="url(#mask-2)"></path>
                    </g>
                    <path d="M22.0427486,11.1255429 C22.7118343,10.5747429 23.4076629,10.0023429 24.11532,9.4212 C22.2006343,7.0776 19.2892629,5.57794286 16.0338343,5.57794286 C12.7496057,5.57794286 9.81663429,7.10537143 7.90246286,9.48497143 C8.60549143,10.0656 9.30132,10.6395429 9.97246286,11.1924 C11.3934343,9.40885714 13.58172,8.26251429 16.0338343,8.26251429 C18.4556057,8.26251429 20.6207486,9.37954286 22.0427486,11.1255429" id="Fill-6" fill="#0FA44A"></path>
                    <path d="M16.0280229,2.68452 C20.1829371,2.68452 23.8991657,4.59663429 26.3445943,7.58617714 C27.0471086,7.00966286 27.7434514,6.43829143 28.4197371,5.88389143 C25.4811086,2.29469143 21.0176229,-5.14285714e-05 16.0280229,-5.14285714e-05 C11.0163086,-5.14285714e-05 6.53585143,2.31526286 3.59825143,5.93172 C4.26476571,6.48303429 4.96008,7.05852 5.66722286,7.64274857 C8.11162286,4.62132 11.8473943,2.68452 16.0280229,2.68452" id="Fill-8" fill="#0FA44A"></path>
                    <polygon id="Fill-10" fill="#0FA44A" points="41.0472 15.9150343 43.6685143 15.9150343 50.0148 29.8506343 50.4174857 29.8506343 56.5801714 15.9150343 59.4318857 15.9150343 65.3641714 29.8506343 65.7324 29.8506343 72.2514857 15.9150343 74.8959429 15.9150343 67.3878857 31.8393771 63.6048 31.8393771 58.0294286 18.7209771 52.1876571 31.8393771 48.348 31.8393771"></polygon>
                    <mask id="mask-4" fill="white">
                        <use xlink:href="#path-3"></use>
                    </mask>
                    <g id="Clip-13"></g>
                    <path d="M76.0870286,31.8393771 L78.1570286,31.8393771 L78.1570286,20.6978914 L76.0870286,20.6978914 L76.0870286,31.8393771 Z M76.0870286,18.98532 L78.1570286,18.98532 L78.1570286,16.7085771 L76.0870286,16.7085771 L76.0870286,18.98532 Z" id="Fill-12" fill="#0FA44A" mask="url(#mask-4)"></path>
                    <path d="M80.4403029,20.6980457 L82.0726457,20.6980457 C82.1029886,19.6864457 82.1719029,18.9433029 82.2793886,18.4675886 C82.3868743,17.9923886 82.5936171,17.5789029 82.9001314,17.2261029 C83.2992171,16.7740457 83.8201886,16.45776 84.4640743,16.2772457 C85.10796,16.09776 86.11596,15.9841029 87.4880743,15.9383314 L89.8568743,15.8694171 L87.4649314,17.6514171 C86.5685314,17.6822743 85.93236,17.73936 85.5564171,17.8237029 C85.16556,17.9080457 84.8698457,18.0618171 84.6713314,18.2834743 C84.4949314,18.4753029 84.3776743,18.7206171 84.3205886,19.0194171 C84.2629886,19.3182171 84.2228743,19.8782743 84.1997314,20.6980457 L89.6614457,20.6980457 L87.6377314,22.4003314 L84.1421314,22.4003314 L84.1421314,31.8395314 L82.0726457,31.8395314 L82.0726457,22.4003314 L80.4403029,22.4003314 L80.4403029,20.6980457 Z" id="Fill-14" fill="#0FA44A" mask="url(#mask-4)"></path>
                    <path d="M89.9208,31.8393771 L91.9908,31.8393771 L91.9908,20.6978914 L89.9208,20.6978914 L89.9208,31.8393771 Z M89.9208,18.98532 L91.9908,18.98532 L91.9908,16.7085771 L89.9208,16.7085771 L89.9208,18.98532 Z" id="Fill-15" fill="#0FA44A" mask="url(#mask-4)"></path>
                    <path d="M119.587269,26.2404514 L121.967383,26.2404514 C121.913383,27.7503943 121.82904,28.7733086 121.714869,29.3102229 C121.445897,30.5285657 120.626126,31.2799371 119.254011,31.5633086 C118.181211,31.7777657 116.283497,31.8857657 113.562926,31.8857657 C110.036983,31.8857657 107.64864,31.7628514 106.39944,31.5175371 C105.165154,31.2645086 104.34024,30.6283371 103.922126,29.6090229 C103.504011,28.5891943 103.295211,26.7614229 103.295211,24.12468 C103.295211,21.6108514 103.448469,19.7861657 103.754983,18.6516514 C104.138126,17.2563943 105.131211,16.4402229 106.733211,16.2026229 C108.220011,15.9804514 110.389269,15.8693657 113.240469,15.8693657 C115.969783,15.8693657 117.927669,16.0035943 119.116183,16.2715371 C119.736926,16.40988 120.269211,16.6778229 120.714069,17.0763943 C121.158926,17.47548 121.442297,17.9352514 121.565726,18.4562229 C121.679897,18.9237086 121.744697,19.8823371 121.761154,21.3305657 L119.472583,21.3305657 C119.465383,20.9859943 119.461269,20.7669086 119.461269,20.6753657 C119.461269,19.9317086 119.39184,19.4102229 119.254011,19.1114229 C119.116183,18.8126229 118.85904,18.5904514 118.483611,18.4449086 C117.732754,18.1383943 115.95024,17.9846229 113.137097,17.9846229 C111.08304,17.9846229 109.549954,18.0386229 108.538354,18.1461086 C107.52624,18.25308 106.878754,18.4181657 106.594869,18.6403371 C106.319211,18.8702229 106.112469,19.3608514 105.974126,20.1117086 C105.836297,20.86308 105.767383,21.9209657 105.767383,23.2848514 C105.767383,23.9287371 105.794126,24.7613657 105.847611,25.7801657 C105.901611,26.7999943 105.955097,27.4968514 106.009097,27.8727943 C106.09344,28.4631943 106.27344,28.8828514 106.549097,29.1317657 C106.825783,29.3811943 107.265497,29.53188 107.871326,29.58588 C109.052126,29.7087943 110.742069,29.7699943 112.941669,29.7699943 C113.616411,29.7699943 114.496354,29.7489086 115.580983,29.7067371 C116.664583,29.6645657 117.353211,29.6244514 117.644811,29.58588 C118.204354,29.5169657 118.612183,29.4115371 118.868811,29.2695943 C119.125954,29.1281657 119.299783,28.9116514 119.39184,28.6200514 C119.491611,28.3521086 119.556926,27.5585657 119.587269,26.2404514" id="Fill-16" fill="#0FA44A" mask="url(#mask-4)"></path>
                    <path d="M128.182989,15.3751371 L129.631217,14.1213086 L133.621046,18.73188 L132.229903,19.8473657 L128.182989,15.3751371 Z M131.701217,26.86068 C130.291046,26.86068 129.311331,26.88588 128.763617,26.9357657 C128.215389,26.9856514 127.833789,27.0720514 127.619331,27.1944514 C127.21356,27.4320514 127.010417,27.8954229 127.010417,28.5855943 C127.010417,29.2603371 127.251103,29.7123943 127.734531,29.9427943 C128.140817,30.1341086 129.581846,30.2297657 132.057617,30.2297657 C133.85916,30.2297657 135.033274,30.1207371 135.582017,29.9021657 C136.129217,29.6835943 136.403331,29.22948 136.403331,28.5393086 C136.403331,27.8799943 136.095274,27.4356514 135.478131,27.2057657 C134.860989,26.97588 133.602017,26.86068 131.701217,26.86068 L131.701217,26.86068 Z M127.45836,24.2049086 L125.331274,24.2049086 C125.308646,23.9287371 125.297331,23.7333086 125.297331,23.6186229 C125.297331,22.4383371 125.747846,21.6319371 126.64836,21.1983943 C127.548874,20.7653657 129.194589,20.5488514 131.586017,20.5488514 C133.456474,20.5488514 134.811617,20.6367943 135.650931,20.8131943 C136.489731,20.9895943 137.151103,21.3264514 137.634017,21.8253086 C138.032589,22.2233657 138.291274,22.6872514 138.410074,23.2164514 C138.52836,23.7446229 138.588017,24.66468 138.588017,25.9755943 L138.588017,31.83948 L136.529846,31.83948 L136.564817,30.5630229 L136.748417,30.5630229 C136.334931,31.1462229 135.811389,31.5273086 135.179331,31.7073086 C134.54676,31.8873086 133.38396,31.9778229 131.689389,31.9778229 C129.77316,31.9778229 128.431903,31.92948 127.665617,31.8333086 C126.898817,31.7376514 126.308417,31.5365657 125.894931,31.2305657 C125.488646,30.9389657 125.208874,30.59388 125.055617,30.1947943 C124.901846,29.7967371 124.825731,29.2485086 124.825731,28.5516514 C124.825731,27.6999943 124.944531,27.0391371 125.182131,26.5680514 C125.419731,26.0964514 125.821903,25.7379943 126.389674,25.49268 C127.002189,25.2324514 128.393331,25.1018229 130.563103,25.1018229 C132.816703,25.1018229 134.303503,25.1727943 135.024017,25.3142229 C135.744531,25.45668 136.288646,25.7765657 136.656874,26.2743943 L136.529846,26.2743943 L136.529846,25.2165086 C136.529846,24.2738229 136.365274,23.5995943 136.035617,23.1933086 C135.752246,22.8482229 135.313046,22.61268 134.719046,22.4861657 C134.12556,22.3596514 133.126817,22.2963943 131.72436,22.2963943 C129.892474,22.2963943 128.723503,22.3982229 128.217446,22.6008514 C127.711389,22.8039943 127.45836,23.2503943 127.45836,23.9405657 L127.45836,24.2049086 Z" id="Fill-17" fill="#0FA44A" mask="url(#mask-4)"></path>
                    <path d="M149.748326,22.3079657 C148.367983,22.3079657 147.352269,22.3501371 146.700669,22.43448 C146.049583,22.5188229 145.570269,22.6643657 145.263754,22.8716229 C144.888326,23.1323657 144.612669,23.5170514 144.436269,24.0267086 C144.259354,24.5363657 144.171411,25.2476229 144.171411,26.1599657 C144.171411,27.23328 144.265526,28.0376229 144.45324,28.5745371 C144.640954,29.1109371 144.95724,29.49768 145.401583,29.73528 C145.999697,30.0649371 147.237069,30.2300229 149.115754,30.2300229 C150.387583,30.2300229 151.33644,30.1878514 151.961297,30.1029943 C152.586154,30.0191657 153.055183,29.8731086 153.369926,29.66688 C153.753069,29.4061371 154.03284,29.0168229 154.20924,28.4994514 C154.38564,27.98208 154.473583,27.2559086 154.473583,26.3204229 C154.473583,25.2630514 154.381526,24.4715657 154.197411,23.94648 C154.013811,23.4213943 153.699069,23.0397943 153.254726,22.8021943 C152.67204,22.4730514 151.503069,22.3079657 149.748326,22.3079657 L149.748326,22.3079657 Z M142.159011,35.7601371 L142.159011,20.6982514 L144.229526,20.6982514 L144.229526,22.1012229 L144.044897,22.1012229 C144.413126,21.5031086 144.95364,21.0973371 145.66644,20.8823657 C146.378726,20.6679086 147.605297,20.5604229 149.34564,20.5604229 C150.831926,20.5604229 151.95924,20.6159657 152.72604,20.7270514 C153.491811,20.8381371 154.128497,21.0392229 154.634554,21.3308229 C155.416269,21.7905943 155.952669,22.4113371 156.244269,23.1930514 C156.519926,23.9367086 156.658269,24.9642514 156.658269,26.2746514 C156.658269,27.9378514 156.401126,29.1680229 155.887869,29.96568 C155.358669,30.7854514 154.647411,31.3259657 153.754611,31.5867086 C152.861811,31.8469371 151.330269,31.9775657 149.161011,31.9775657 C147.56724,31.9775657 146.413697,31.8757371 145.700897,31.6725943 C144.987583,31.4694514 144.439869,31.0919657 144.056726,30.5401371 L144.229526,30.5401371 L144.229526,35.7601371 L142.159011,35.7601371 Z" id="Fill-18" fill="#0FA44A" mask="url(#mask-4)"></path>
                    <path d="M160.148571,15.9150343 L162.218571,15.9150343 L162.218571,22.3194343 L162.068914,22.3194343 C162.421714,21.66012 163.002343,21.2024057 163.8108,20.9452629 C164.618743,20.6886343 165.924514,20.5605771 167.725543,20.5605771 C169.243714,20.5605771 170.4024,20.65212 171.203657,20.8362343 C172.0044,21.0203486 172.6308,21.3417771 173.083371,21.8020629 C173.459314,22.2006343 173.710286,22.6835486 173.8368,23.2508057 C173.963314,23.8180629 174.026571,24.7530343 174.026571,26.0562343 L174.026571,31.8393771 L171.956571,31.8393771 L171.956571,26.5962343 C171.956571,25.4699486 171.919029,24.6938914 171.841886,24.2680629 C171.765257,23.8427486 171.607886,23.4806914 171.370286,23.1813771 C171.117257,22.8676629 170.701714,22.6434343 170.123143,22.5092057 C169.544571,22.3754914 168.671829,22.30812 167.507486,22.30812 C166.196571,22.30812 165.184971,22.39812 164.471657,22.57812 C163.759371,22.7586343 163.226057,23.0476629 162.873771,23.4462343 C162.598114,23.7532629 162.419657,24.0978343 162.339429,24.4809771 C162.258686,24.8646343 162.218571,25.5692057 162.218571,26.5962343 L162.218571,31.8393771 L160.148571,31.8393771 L160.148571,15.9150343 Z" id="Fill-19" fill="#0FA44A" mask="url(#mask-4)"></path>
                    <path d="M180.575331,19.5600343 L179.804931,18.0999771 L184.645389,15.2024914 L189.474531,18.0999771 L188.715446,19.5600343 L184.645389,17.5476343 L180.575331,19.5600343 Z M189.440074,25.06752 C189.43236,24.1094057 189.163903,23.4269486 188.635217,23.0206629 C188.290131,22.7604343 187.79796,22.57632 187.157674,22.4693486 C186.517903,22.3618629 185.565446,22.3078629 184.300303,22.3078629 C183.196646,22.3078629 182.363503,22.3577486 181.799846,22.4570057 C181.236189,22.5572914 180.801103,22.7259771 180.495103,22.9635771 C179.981331,23.3698629 179.686131,24.0708343 179.609503,25.06752 L189.440074,25.06752 Z M189.532131,28.2406629 L191.670531,28.2406629 C191.640189,29.6513486 191.16036,30.6264343 190.233103,31.1669486 C189.305846,31.7074629 187.719274,31.9779771 185.473389,31.9779771 C183.641503,31.9779771 182.240589,31.9044343 181.27116,31.7588914 C180.301217,31.6133486 179.559103,31.3644343 179.045846,31.0116343 C177.911846,30.2072914 177.344589,28.6356343 177.344589,26.2976914 C177.344589,24.6648343 177.582189,23.4387771 178.057389,22.6184914 C178.51716,21.81312 179.184189,21.26952 180.05796,20.9856343 C180.931731,20.7022629 182.361446,20.56032 184.346589,20.56032 C186.239674,20.56032 187.619503,20.6636914 188.48556,20.8704343 C189.351617,21.0776914 190.045389,21.4762629 190.566874,22.0666629 C190.988074,22.5572914 191.278131,23.1204343 191.434474,23.75712 C191.591846,24.3927771 191.678246,25.3966629 191.69316,26.7687771 L179.540074,26.7687771 C179.58636,28.0262057 179.847103,28.9004914 180.322303,29.3906057 C180.621103,29.7048343 181.119446,29.9234057 181.816817,30.0458057 C182.514703,30.1682057 183.671846,30.22992 185.289274,30.22992 C186.508131,30.22992 187.39116,30.1743771 187.939389,30.0632914 C188.487617,29.9522057 188.888246,29.7588343 189.141274,29.4826629 C189.340303,29.2599771 189.470417,28.8464914 189.532131,28.2406629 L189.532131,28.2406629 Z" id="Fill-20" fill="#0FA44A" mask="url(#mask-4)"></path>
                </g>
            </g>
        </g>
    </g>
</svg>